# xmcd
#
# Track frame offsets:
#	150
#	14073
#	27216
#	39588
#	52597
#	64560
#	82570
#	99187
#	113458
#	131134
#	142511
#	157608
#
# Disc length: 2199 seconds
#
# Revision: 1
# Processed by: cddbd v1.5.1PL0 Copyright (c) Steve Scherf et al.
# Submitted via: audiograbber 1.81.03
#
DISCID=7608950c
DTITLE=Jim`Crawford]p[Josh Graves - Down South
DYEAR=2005
DGENRE=Country
TTITLE0=Come On Train
TTITLE1=Hound Dog Ramble
TTITLE2=Faded Love
TTITLE3=Steel Guitar Chimes
TTITLE4=Monkeys On My Back
TTITLE5=Lily Dale
TTITLE6=Maiden's Prayer
TTITLE7=Ruben's Train
TTITLE8=Starlight Waltz
TTITLE9=Rosewood Casket
TTITLE10=Long Road to Aspen
TTITLE11=Bogalusa Bounce
EXTD=
EXTT0=
EXTT1=
EXTT2=
EXTT3=
EXTT4=
EXTT5=
EXTT6=
EXTT7=
EXTT8=
EXTT9=
EXTT10=
EXTT11=
PLAYORDER=
